<svg width="202" height="45" viewBox="0 0 202 45" fill="none" xmlns="http://www.w3.org/2000/svg">
<path d="M91.9173 23.0251C90.3335 23.0251 88.891 22.6455 87.59 21.8863C86.289 21.1081 85.2425 19.9502 84.4506 18.4128C83.6775 16.8754 83.291 14.9679 83.291 12.6902C83.291 10.4884 83.6681 8.59989 84.4223 7.0245C85.1765 5.44912 86.2513 4.24386 87.6466 3.40871C89.0419 2.55459 90.6917 2.12753 92.5961 2.12753C93.6143 2.12753 94.6419 2.26039 95.679 2.52612C96.7349 2.77287 97.8662 3.14299 99.0729 3.63648L98.7901 9.10287H95.9052L95.2547 6.36967C94.3308 6.06599 93.5106 5.91414 92.7941 5.91414C91.3422 5.91414 90.2769 6.46458 89.5981 7.56545C88.9193 8.64734 88.5799 10.1658 88.5799 12.1208C88.5799 14.4933 89.0042 16.249 89.8527 17.3879C90.7012 18.5077 91.7948 19.0676 93.1335 19.0676C93.8123 19.0676 94.5288 18.9253 95.283 18.6406C96.0372 18.3559 96.8103 17.9193 97.6022 17.3309L99.384 20.178C98.1773 21.146 96.9328 21.8673 95.6507 22.3418C94.3685 22.7973 93.1241 23.0251 91.9173 23.0251Z" fill="#0E408C"/>
<path d="M110.849 22.9112L110.34 20.5766C108.983 22.2089 107.37 23.0251 105.504 23.0251C104.203 23.0251 103.147 22.617 102.336 21.8008C101.544 20.9657 101.148 19.8269 101.148 18.3843C101.148 16.79 101.657 15.6512 102.675 14.9679C103.713 14.2656 105.249 13.9144 107.286 13.9144H109.803V12.7471C109.803 11.9499 109.614 11.3805 109.237 11.0389C108.879 10.6783 108.323 10.4979 107.568 10.4979C106.965 10.4979 106.277 10.5928 105.504 10.7826L105.164 12.5763H102.223L101.997 8.10639C104.731 7.34717 107.031 6.96756 108.898 6.96756C110.783 6.96756 112.207 7.36615 113.168 8.16334C114.13 8.96052 114.611 10.1943 114.611 11.8645V19.5516L116.336 20.2065V22.655L110.849 22.9112ZM105.956 17.8434C105.956 18.4508 106.098 18.9063 106.381 19.21C106.663 19.4947 107.022 19.6371 107.455 19.6371C108.228 19.6371 109.011 19.2574 109.803 18.4982V16.249H108.078C107.286 16.249 106.729 16.3724 106.409 16.6192C106.107 16.8659 105.956 17.274 105.956 17.8434Z" fill="#0E408C"/>
<path d="M117.874 29.2032V26.7548L119.599 26.0999V10.4979L117.874 9.90005V7.48003L123.361 7.19533L123.728 9.0744C124.539 8.3911 125.331 7.86914 126.104 7.50851C126.877 7.14788 127.697 6.96756 128.565 6.96756C130.186 6.96756 131.515 7.62239 132.552 8.93205C133.608 10.2417 134.136 12.1208 134.136 14.5693C134.136 16.4483 133.816 18.0237 133.175 19.2954C132.534 20.5481 131.638 21.4877 130.488 22.114C129.356 22.7404 128.037 23.0536 126.528 23.0536C125.849 23.0536 125.142 22.9871 124.407 22.8543V26.0999L126.443 26.7548V29.2032H117.874ZM125.878 19.6371C127.047 19.6371 127.876 19.229 128.367 18.4128C128.876 17.5777 129.13 16.4578 129.13 15.0533C129.13 13.6867 128.913 12.5858 128.48 11.7507C128.065 10.9155 127.452 10.4979 126.641 10.4979C125.963 10.4979 125.218 10.8111 124.407 11.4375V19.4662C124.954 19.5801 125.444 19.6371 125.878 19.6371Z" fill="#0E408C"/>
<path d="M136.349 22.655V20.2065L138.074 19.6371V10.5264L136.349 9.90005V7.48003L141.836 7.19533L142.288 9.27369C143.062 8.53345 143.825 7.96404 144.579 7.56545C145.334 7.16686 146.135 6.96756 146.983 6.96756C147.587 6.96756 148.237 7.06246 148.935 7.25227L148.68 13.0888H145.909L145.569 10.7826C145.475 10.7637 145.371 10.7542 145.258 10.7542C144.843 10.7542 144.419 10.8681 143.985 11.0958C143.571 11.3236 143.203 11.6083 142.882 11.9499V19.6371L145.06 20.2065V22.655H136.349Z" fill="#0E408C"/>
<path d="M159.073 20.2065V22.655H150.814V20.2065L152.539 19.6086V10.4979L150.814 9.90005V7.48003L157.348 7.25227V19.6086L159.073 20.2065ZM154.859 5.45861C154.048 5.45861 153.388 5.23084 152.879 4.77531C152.389 4.3008 152.144 3.62699 152.144 2.75388C152.144 1.84282 152.398 1.15952 152.907 0.703989C153.435 0.248457 154.095 0.0206909 154.887 0.0206909C155.66 0.0206909 156.301 0.248457 156.81 0.703989C157.319 1.15952 157.574 1.83333 157.574 2.72541C157.574 3.63648 157.31 4.31978 156.782 4.77531C156.273 5.23084 155.632 5.45861 154.859 5.45861Z" fill="#0E408C"/>
<path d="M168.608 6.96756C170.927 6.96756 172.728 7.64137 174.01 8.98899C175.292 10.3366 175.933 12.2536 175.933 14.7401C175.933 17.3404 175.235 19.3713 173.84 20.8328C172.445 22.2943 170.531 23.0251 168.099 23.0251C165.779 23.0251 163.988 22.3608 162.725 21.0321C161.48 19.6845 160.858 17.7675 160.858 15.281C160.858 12.6807 161.537 10.6498 162.895 9.18828C164.252 7.7078 166.157 6.96756 168.608 6.96756ZM168.41 10.3841C167.524 10.3841 166.873 10.7542 166.458 11.4944C166.062 12.2157 165.864 13.402 165.864 15.0533C165.864 16.7046 166.062 17.8814 166.458 18.5836C166.854 19.2859 167.486 19.6371 168.353 19.6371C169.258 19.6371 169.909 19.2669 170.305 18.5267C170.72 17.7675 170.927 16.5717 170.927 14.9394C170.927 13.3071 170.729 12.1398 170.333 11.4375C169.937 10.7352 169.296 10.3841 168.41 10.3841Z" fill="#0E408C"/>
<path d="M185.978 20.2065V22.655H177.719V20.2065L179.444 19.6086V3.66495L177.719 3.09553V0.647047L184.252 0.39081V19.6086L185.978 20.2065Z" fill="#0E408C"/>
<path d="M194.9 23.0251C192.75 23.0251 191.025 22.3703 189.724 21.0606C188.442 19.7509 187.801 17.8339 187.801 15.3095C187.801 13.5823 188.112 12.1018 188.734 10.8681C189.356 9.61534 190.242 8.65683 191.393 7.99251C192.543 7.30921 193.91 6.96756 195.494 6.96756C197.021 6.96756 198.265 7.27125 199.227 7.87863C200.189 8.486 200.886 9.30217 201.32 10.3271C201.772 11.3521 201.999 12.5099 201.999 13.8005C201.999 14.5218 201.933 15.281 201.801 16.0782H192.807C192.939 17.0842 193.24 17.9098 193.712 18.5552C194.202 19.1815 194.985 19.4947 196.059 19.4947C196.625 19.4947 197.266 19.3903 197.983 19.1815C198.699 18.9538 199.444 18.6311 200.217 18.2135L201.801 20.7189C200.669 21.4972 199.519 22.0761 198.35 22.4557C197.181 22.8353 196.031 23.0251 194.9 23.0251ZM195.098 10.4125C194.343 10.4125 193.787 10.7067 193.429 11.2951C193.09 11.8645 192.873 12.5763 192.778 13.4304H197.049C197.03 12.4814 196.879 11.7412 196.597 11.2097C196.314 10.6783 195.814 10.4125 195.098 10.4125Z" fill="#0E408C"/>
<path d="M84.2832 34.8897H85.0186V41.892H84.2832V34.8897Z" fill="#0E408C"/>
<path d="M97.716 34.8897V41.892H97.1098L92.638 36.2101V41.892H91.9027V34.8897H92.5089L96.9906 40.5715V34.8897H97.716Z" fill="#0E408C"/>
<path d="M110.313 34.8897L107.233 41.892H106.507L103.427 34.8897H104.222L106.885 40.9717L109.568 34.8897H110.313Z" fill="#0E408C"/>
<path d="M120.862 41.2518V41.892H115.944V34.8897H120.713V35.5299H116.679V38.0207H120.276V38.6509H116.679V41.2518H120.862Z" fill="#0E408C"/>
<path d="M129.13 41.952C128.613 41.952 128.116 41.8686 127.639 41.7019C127.169 41.5352 126.804 41.3151 126.546 41.0417L126.834 40.4715C127.086 40.7249 127.421 40.9317 127.838 41.0917C128.255 41.2451 128.686 41.3218 129.13 41.3218C129.752 41.3218 130.219 41.2084 130.531 40.9817C130.842 40.7483 130.998 40.4482 130.998 40.0814C130.998 39.8013 130.912 39.5779 130.74 39.4112C130.574 39.2445 130.369 39.1177 130.123 39.031C129.878 38.9377 129.537 38.8377 129.1 38.731C128.577 38.5976 128.159 38.4709 127.848 38.3508C127.536 38.2241 127.268 38.0341 127.043 37.7806C126.824 37.5272 126.715 37.1838 126.715 36.7503C126.715 36.3969 126.808 36.0768 126.993 35.79C127.179 35.4966 127.464 35.2632 127.848 35.0898C128.232 34.9164 128.709 34.8297 129.279 34.8297C129.676 34.8297 130.064 34.8864 130.441 34.9997C130.826 35.1064 131.157 35.2565 131.435 35.4499L131.187 36.0401C130.895 35.8467 130.584 35.7033 130.253 35.6099C129.921 35.5099 129.597 35.4599 129.279 35.4599C128.669 35.4599 128.209 35.5799 127.897 35.82C127.593 36.0534 127.44 36.3568 127.44 36.7303C127.44 37.0104 127.523 37.2371 127.689 37.4105C127.861 37.5772 128.073 37.7073 128.325 37.8006C128.583 37.8873 128.928 37.984 129.358 38.0907C129.868 38.2174 130.279 38.3442 130.59 38.4709C130.908 38.5909 131.177 38.7776 131.395 39.031C131.614 39.2778 131.723 39.6146 131.723 40.0414C131.723 40.3948 131.627 40.7183 131.435 41.0117C131.25 41.2985 130.961 41.5285 130.571 41.7019C130.18 41.8686 129.699 41.952 129.13 41.952Z" fill="#0E408C"/>
<path d="M139.201 35.5299H136.756V34.8897H142.381V35.5299H139.936V41.892H139.201V35.5299Z" fill="#0E408C"/>
<path d="M155.401 34.8897V41.892H154.695V36.2902L151.962 41.0017H151.615L148.882 36.3202V41.892H148.176V34.8897H148.783L151.803 40.0814L154.795 34.8897H155.401Z" fill="#0E408C"/>
<path d="M167.207 41.2518V41.892H162.288V34.8897H167.058V35.5299H163.023V38.0207H166.621V38.6509H163.023V41.2518H167.207Z" fill="#0E408C"/>
<path d="M179.37 34.8897V41.892H178.763L174.292 36.2101V41.892H173.556V34.8897H174.163L178.644 40.5715V34.8897H179.37Z" fill="#0E408C"/>
<path d="M187.612 35.5299H185.168V34.8897H190.792V35.5299H188.348V41.892H187.612V35.5299Z" fill="#0E408C"/>
<path d="M198.399 41.952C197.882 41.952 197.385 41.8686 196.908 41.7019C196.438 41.5352 196.074 41.3151 195.815 41.0417L196.104 40.4715C196.355 40.7249 196.69 40.9317 197.107 41.0917C197.525 41.2451 197.955 41.3218 198.399 41.3218C199.022 41.3218 199.489 41.2084 199.8 40.9817C200.112 40.7483 200.267 40.4482 200.267 40.0814C200.267 39.8013 200.181 39.5779 200.009 39.4112C199.843 39.2445 199.638 39.1177 199.393 39.031C199.148 38.9377 198.806 38.8377 198.369 38.731C197.846 38.5976 197.429 38.4709 197.117 38.3508C196.806 38.2241 196.537 38.0341 196.312 37.7806C196.094 37.5272 195.984 37.1838 195.984 36.7503C195.984 36.3969 196.077 36.0768 196.263 35.79C196.448 35.4966 196.733 35.2632 197.117 35.0898C197.501 34.9164 197.978 34.8297 198.548 34.8297C198.946 34.8297 199.333 34.8864 199.711 34.9997C200.095 35.1064 200.426 35.2565 200.704 35.4499L200.456 36.0401C200.165 35.8467 199.853 35.7033 199.522 35.6099C199.191 35.5099 198.866 35.4599 198.548 35.4599C197.939 35.4599 197.478 35.5799 197.167 35.82C196.862 36.0534 196.71 36.3568 196.71 36.7303C196.71 37.0104 196.793 37.2371 196.958 37.4105C197.13 37.5772 197.342 37.7073 197.594 37.8006C197.853 37.8873 198.197 37.984 198.628 38.0907C199.138 38.2174 199.548 38.3442 199.86 38.4709C200.178 38.5909 200.446 38.7776 200.665 39.031C200.883 39.2778 200.993 39.6146 200.993 40.0414C200.993 40.3948 200.897 40.7183 200.704 41.0117C200.519 41.2985 200.231 41.5285 199.84 41.7019C199.449 41.8686 198.969 41.952 198.399 41.952Z" fill="#0E408C"/>
<path d="M19.9029 17.4026C18.1305 21.4731 19.5337 25.693 19.5337 25.693C19.5337 25.693 18.6105 28.0457 17.2074 28.0457C15.8042 28.0457 15.3611 27.5603 14.8811 28.0457C14.401 28.5312 12.5547 36.4483 12.1116 36.9337C11.6316 37.4192 9.3422 38.3528 9.3422 38.3528L11.6685 44.44C11.6685 44.44 15.3611 39.7719 15.8411 38.3528C16.3212 36.9337 17.6874 33.1993 19.0906 31.8175C20.4938 30.4358 23.7063 30.3985 26.0326 28.0831C27.6573 26.4399 29.2821 23.415 29.2821 23.415C30.9807 23.1536 32.79 23.1163 34.5255 23.3403C35.8548 23.5271 37.0734 24.1246 38.4027 24.4233C40.1751 24.8341 41.9845 24.9461 43.7939 24.7968C45.2709 24.6847 47.0064 24.386 48.2249 23.415C50.5513 21.5478 49.1481 23.415 49.1481 23.415L49.6281 24.8341C49.6281 24.8341 52.8776 23.9005 55.167 22.4814C57.4933 21.0623 57.9364 21.0623 57.9364 22.4814C57.9364 25.2823 57.4564 26.7013 55.6101 25.7677C54.7977 25.3569 54.2069 24.8341 54.2069 24.8341L51.4375 29.5022C51.4375 29.5022 56.0532 29.5022 56.9763 29.5022C57.8995 29.5022 60.3735 26.8134 60.6689 26.2159C61.1489 25.2822 61.592 20.1287 61.592 20.1287C61.592 20.1287 62.0721 15.9088 59.7458 16.3943C57.4194 16.8797 55.13 17.8133 55.13 17.8133L55.6101 14.527L59.7827 10.3071C59.7827 10.3071 62.8106 13.7428 63.0321 14.0415C63.2537 14.3403 64.0291 16.1702 64.2876 16.3196C64.8415 16.6557 66.9093 16.581 67.2048 16.3943C67.5002 16.2075 67.7217 14.9378 67.6848 14.527C67.6479 14.1162 66.9463 12.9212 66.7616 12.1743C66.577 11.4648 66.577 7.24484 66.7616 6.72202C66.9463 6.19919 68.3125 4.96682 67.9802 4.89214C67.6848 4.81745 65.9862 4.40665 65.9862 4.40665C65.9862 4.40665 67.3155 2.50208 67.2048 2.35271C67.094 2.20333 64.8415 1.86723 63.7337 1.60582C63.2537 1.49378 62.5152 1.04565 62.0352 0.82158C61.8505 0.709546 61.3336 0.149378 61.1489 0.0746894C60.9274 -0.0373443 60.9274 0.672202 60.7058 0.560168C60.2996 0.41079 60.0781 0 59.7827 0C59.3765 0.0373445 57.7149 0.672202 55.9424 1.3444C55.3885 1.56847 53.9854 1.56847 53.4315 1.75519C53.1361 1.86723 53.653 2.4274 53.3576 2.53943C53.0991 2.65146 52.2498 2.61412 51.9914 2.61412C51.5852 2.61412 51.3636 2.50208 51.2159 2.57677C50.8467 2.7635 50.9205 3.24897 50.4036 3.21163C49.6651 3.0996 50.0343 3.62242 49.5173 3.69711C48.8896 3.80914 48.2619 3.62242 47.5603 3.7718C47.191 3.84649 47.0064 4.25728 46.6741 4.29462C45.9356 4.444 45.3078 4.40666 44.9755 4.63072C44.0523 5.34027 41.726 11.166 38.5135 11.6515C35.264 12.137 30.9437 10.9793 26.9558 12.137C23.5586 13.1079 20.9369 15.4233 20.9369 15.4233C20.9369 15.4233 19.6075 13.2947 17.2812 13.1826C15.5088 13.1079 13.9579 14.4523 13.0348 15.9835C12.2593 17.2905 12.1486 18.7843 10.1546 20.3154C8.30828 21.7345 4.32031 22.4441 4.32031 22.4441L5.24345 23.8632C5.24345 23.8632 4.83727 24.498 3.17561 24.6474C1.55088 24.7594 0 23.9752 0 23.9752C0.147703 24.0499 0.369257 24.6101 0.480034 24.7594C1.07084 25.469 1.84628 25.9918 2.65865 26.4026C6.31429 28.1578 10.0069 27.3735 13.5517 25.693C13.8841 25.5437 14.2533 25.6557 14.6226 25.6557C15.1395 25.6557 15.6196 25.581 16.0996 25.3943C17.392 24.8715 17.872 23.7511 18.0936 22.4441C18.1674 21.9586 18.4259 20.2034 18.7213 19.3818C19.1275 18.0001 19.9029 17.4026 19.9029 17.4026Z" fill="#0E408C"/>
</svg>
